<svg width="160" height="100" viewBox="0 0 160 100" xmlns="http://www.w3.org/2000/svg">
  <defs>
    <linearGradient id="tableTopBusy" x1="0" y1="0" x2="1" y2="1">
      <stop offset="0%" stop-color="#ffe5e5" />
      <stop offset="100%" stop-color="#ffb3b3" />
    </linearGradient>
  </defs>
  <rect x="10" y="25" width="140" height="35" rx="6" fill="url(#tableTopBusy)" stroke="#d32f2f" stroke-width="3" />
  <rect x="22" y="62" width="12" height="26" rx="3" fill="#d32f2f" />
  <rect x="126" y="62" width="12" height="26" rx="3" fill="#d32f2f" />
  <rect x="40" y="30" width="26" height="20" rx="3" fill="#fff" stroke="#b71c1c" stroke-width="2" />
  <rect x="70" y="30" width="26" height="20" rx="3" fill="#fff" stroke="#b71c1c" stroke-width="2" />
  <rect x="100" y="30" width="26" height="20" rx="3" fill="#fff" stroke="#b71c1c" stroke-width="2" />
  <line x1="44" y1="34" x2="62" y2="34" stroke="#b71c1c" stroke-width="2" />
  <line x1="44" y1="38" x2="58" y2="38" stroke="#b71c1c" stroke-width="2" />
  <line x1="74" y1="34" x2="92" y2="34" stroke="#b71c1c" stroke-width="2" />
  <line x1="74" y1="38" x2="88" y2="38" stroke="#b71c1c" stroke-width="2" />
  <line x1="104" y1="34" x2="122" y2="34" stroke="#b71c1c" stroke-width="2" />
  <line x1="104" y1="38" x2="118" y2="38" stroke="#b71c1c" stroke-width="2" />
  <text x="80" y="20" text-anchor="middle" font-family="Segoe UI, Arial" font-size="14" fill="#c62828">BAN BẬN</text>
</svg>
